<svg id="Layer_1" enable-background="new 0 0 511 511" height="512" viewBox="0 0 511 511" width="512" xmlns="http://www.w3.org/2000/svg"><g><path d="m215.5 352h16v15h-16z"/><path d="m247.5 352h16v15h-16z"/><path d="m279.5 352h16v15h-16z"/><path d="m432.312 219.015c-14.362-27.404-35.26-51.461-60.432-69.569l-8.76 12.176c17.601 12.663 32.937 28.471 45.116 46.379h-50.344c-4.816-13.294-10.598-25.719-17.296-37.027 12.227-23.683 18.404-46.256 18.404-67.474 0-57.07-46.43-103.5-103.5-103.5s-103.5 46.43-103.5 103.5c0 21.218 6.177 43.791 18.405 67.473-6.698 11.309-12.48 23.733-17.296 37.027h-50.344c12.179-17.908 27.515-33.716 45.116-46.379l-8.76-12.176c-25.172 18.108-46.069 42.165-60.432 69.569-14.843 28.321-22.689 60.302-22.689 92.486 0 110.005 89.495 199.5 199.5 199.5s199.5-89.495 199.5-199.5c0-32.184-7.846-64.165-22.688-92.485zm-184.312 276.506c-24.368-3.107-47.292-21.307-65.218-52.036-5.135-8.803-9.692-18.344-13.638-28.485h78.856zm15 0v-80.521h78.856c-3.946 10.142-8.503 19.682-13.638 28.485-17.926 30.729-40.85 48.929-65.218 52.036zm0-95.521v-16.5h-15v16.5h-84.108c-7.748-24.697-12.146-52.255-12.799-81h96.907v16.5h15v-16.5h96.907c-.653 28.745-5.051 56.303-12.799 81zm-191.835-81h64.925c.623 28.527 4.781 56.022 12.134 81h-54.571c-13.301-24.228-21.312-51.748-22.488-81zm134.401-96c18.396 22.225 35.877 38.194 42.434 43.94v37.06h-96.903c.672-28.499 5.153-56.225 12.896-81zm99.868 0h41.573c7.743 24.775 12.224 52.501 12.896 81h-96.903v-37.06c6.557-5.746 24.038-21.715 42.434-43.94zm69.476 96h64.925c-1.176 29.252-9.187 56.772-22.488 81h-54.572c7.353-24.978 11.512-52.473 12.135-81zm42.498-96c.543.991 1.093 1.978 1.618 2.979 12.568 23.979 19.69 50.806 20.802 78.021h-64.918c-.618-28.627-4.765-56.079-12.103-81zm-75.621-15h-24.583c5.444-7.333 10.36-14.58 14.747-21.733 3.598 6.835 6.885 14.101 9.836 21.733zm-86.287-193c48.799 0 88.5 39.701 88.5 88.5 0 65.465-69.415 132.753-88.503 150.014-19.094-17.249-88.497-84.471-88.497-150.014 0-48.799 39.701-88.5 88.5-88.5zm-76.451 171.267c4.387 7.153 9.303 14.399 14.747 21.733h-24.583c2.951-7.632 6.238-14.898 9.836-21.733zm-87.074 39.712c.524-1 1.074-1.988 1.618-2.979h54.601c-7.338 24.921-11.485 52.373-12.103 81h-64.919c1.112-27.215 8.234-54.042 20.803-78.021zm10.866 189.021h50.302c4.672 12.915 10.247 25.012 16.683 36.044 8.405 14.408 17.904 26.4 28.205 35.78-39.1-12.848-72.476-38.428-95.19-71.824zm210.128 71.824c10.301-9.38 19.8-21.372 28.205-35.78 6.435-11.032 12.01-23.129 16.683-36.044h50.302c-22.714 33.396-56.09 58.976-95.19 71.824z"/><path d="m327 103.5c0-39.425-32.075-71.5-71.5-71.5s-71.5 32.075-71.5 71.5 32.075 71.5 71.5 71.5 71.5-32.075 71.5-71.5zm-71.5-56.5c19.5 0 36.723 9.931 46.881 25h-93.762c10.158-15.069 27.381-25 46.881-25zm-54.036 40h108.072c1.598 5.222 2.464 10.761 2.464 16.5s-.866 11.278-2.464 16.5h-108.072c-1.598-5.222-2.464-10.761-2.464-16.5s.866-11.278 2.464-16.5zm7.155 48h93.762c-10.158 15.069-27.381 25-46.881 25s-36.723-9.931-46.881-25z"/></g></svg>