<svg viewBox="0 0 512 512" xmlns="http://www.w3.org/2000/svg" xmlns:xlink="http://www.w3.org/1999/xlink"><linearGradient id="a" gradientTransform="matrix(1 0 0 -1 0 -10886)" gradientUnits="userSpaceOnUse" x1="0" x2="512" y1="-11142" y2="-11142"><stop offset="0" stop-color="#00f1ff"/><stop offset=".231" stop-color="#00d8ff"/><stop offset=".5138" stop-color="#00c0ff"/><stop offset=".7773" stop-color="#00b2ff"/><stop offset="1" stop-color="#00adff"/></linearGradient><path d="m512 256c0 141.386719-114.613281 256-256 256s-256-114.613281-256-256 114.613281-256 256-256 256 114.613281 256 256zm0 0" fill="url(#a)"/><path d="m444.558594 222.78125-157.101563-158.136719c-.199219-.203125-.40625-.398437-.621093-.589843-17.125-15.375-43.003907-15.433594-60.191407-.125-.214843.1875-.421875.382812-.621093.585937l-158.535157 158.21875c-5.863281 5.851563-5.875 15.351563-.019531 21.214844 5.851562 5.863281 15.347656 5.871093 21.210938.019531l12.097656-12.074219v130.371094c0 33.210937 27.023437 60.230469 60.234375 60.230469h54.277343c8.285157 0 15-6.714844 15-15v-122.957032h52.929688v122.957032c0 8.285156 6.714844 15 15 15h52.769531c33.210938 0 60.234375-27.019532 60.234375-60.230469 0-8.285156-6.71875-15-15-15-8.285156 0-15 6.714844-15 15 0 16.667969-13.566406 30.230469-30.234375 30.230469h-37.769531v-122.957032c0-8.285156-6.714844-15-15-15h-82.929688c-8.28125 0-15 6.714844-15 15v122.957032h-39.277343c-16.671875 0-30.234375-13.5625-30.234375-30.230469v-159.824219c0-.15625-.015625-.308594-.019532-.464844l116.101563-115.875c5.675781-4.824218 14.007813-4.804687 19.667969.042969l114.695312 115.449219v85.285156c0 8.285156 6.714844 15 15 15 8.28125 0 15-6.714844 15-15v-55.085937l12.050782 12.132812c2.933593 2.949219 6.785156 4.425781 10.640624 4.425781 3.824219 0 7.648438-1.449218 10.574219-4.355468 5.875-5.839844 5.90625-15.339844.070313-21.214844zm0 0" fill="#fff"/></svg>