<svg id="Capa_1" enable-background="new 0 0 508.212 508.212" height="512" viewBox="0 0 508.212 508.212" width="512" xmlns="http://www.w3.org/2000/svg"><g><path d="m461.212 338.36-32 24-17-12.75v-51.315l62.212-62.226c-254.349-254.349-235.594-236.75-237.212-235.132-1.617-1.617 17.114-19.194-237.212 235.132l62.212 62.226v209.815h446v-134.5zm-224-294.997c1.613-1.613-13.864-15.945 194.788 192.708l-24.039 24.044-170.749-170.748-170.749 170.748-24.039-24.044c208.645-208.645 193.17-194.326 194.788-192.708zm-145 434.747v-201.316l145-145.001 145 145.001v72.816l-17 12.75-32-24-17 12.75v-97h-158v182h128v42zm145-135.894c8.592 22.544 20.412 44.887 33.199 63.894h-66.399c12.773-18.985 24.591-41.304 33.2-63.894zm-49 32.616v-90.722h33.099c-3.728 32.301-18.513 65.778-33.099 90.722zm98 0c-14.586-24.943-29.372-58.421-33.099-90.722h33.099zm30 103.278c0-9.214 0-77.973 0-89.5l17-12.75 17 12.75v89.5zm98 0c-11.891 0-22.109 0-34 0v-89.5l17-12.75 17 12.75zm64 0h-34v-89.5l17-12.75 17 12.75z"/></g></svg>