<?xml version="1.0" encoding="iso-8859-1"?>
<!-- Generator: Adobe Illustrator 16.0.0, SVG Export Plug-In . SVG Version: 6.00 Build 0)  -->
<!DOCTYPE svg PUBLIC "-//W3C//DTD SVG 1.1//EN" "http://www.w3.org/Graphics/SVG/1.1/DTD/svg11.dtd">
<svg version="1.1" id="Capa_1" xmlns="http://www.w3.org/2000/svg" xmlns:xlink="http://www.w3.org/1999/xlink" x="0px" y="0px"
	 width="340.001px" height="340.001px" viewBox="0 0 340.001 340.001" style="enable-background:new 0 0 340.001 340.001;"
	 xml:space="preserve">
<g>
	<g>
		<path d="M40.76,145.536l34.928-34.925L56.592,91.518c-9.627-9.629-9.627-25.297,0.002-34.927c9.627-9.628,25.295-9.63,34.924,0
			l84.291,84.291l34.924-34.925l-84.289-84.292c-28.889-28.888-75.891-28.886-104.777,0c-28.885,28.887-28.887,75.889,0,104.776
			L40.76,145.536z"/>
		<path d="M299.239,194.465l-34.924,34.928l19.094,19.093c9.629,9.629,9.627,25.296-0.002,34.926s-25.295,9.628-34.922,0
			l-84.292-84.291l-34.926,34.925l84.291,84.291c14.444,14.442,33.417,21.665,52.388,21.665c18.973,0,37.943-7.223,52.389-21.666
			c28.887-28.887,28.887-75.887,0-104.774L299.239,194.465z"/>
		<path d="M248.485,56.593c9.627-9.628,25.297-9.627,34.926,0.001c9.627,9.63,9.627,25.297,0,34.925L199.12,175.81l34.924,34.925
			l84.291-84.29c28.887-28.887,28.887-75.891,0-104.776S242.448-7.217,213.56,21.667l-19.094,19.095l34.926,34.928L248.485,56.593z"
			/>
		<path d="M91.519,283.409c-9.629,9.628-25.297,9.627-34.926-0.002c-9.629-9.629-9.629-25.295,0-34.923l84.291-84.291
			l-34.926-34.925L21.667,213.56c-28.887,28.886-28.887,75.888,0,104.773C36.109,332.777,55.081,340,74.056,339.998
			c18.969-0.001,37.945-7.223,52.389-21.664l19.094-19.096l-34.928-34.924L91.519,283.409z"/>
	</g>
</g>
<g>
</g>
<g>
</g>
<g>
</g>
<g>
</g>
<g>
</g>
<g>
</g>
<g>
</g>
<g>
</g>
<g>
</g>
<g>
</g>
<g>
</g>
<g>
</g>
<g>
</g>
<g>
</g>
<g>
</g>
</svg>
