<?xml version="1.0" encoding="iso-8859-1"?>
<!-- Generator: Adobe Illustrator 19.0.0, SVG Export Plug-In . SVG Version: 6.00 Build 0)  -->
<svg version="1.1" id="Capa_1" xmlns="http://www.w3.org/2000/svg" xmlns:xlink="http://www.w3.org/1999/xlink" x="0px" y="0px"
	 viewBox="0 0 512.008 512.008" style="enable-background:new 0 0 512.008 512.008;" xml:space="preserve">
<path style="fill:#2196F3;" d="M501.342,0.011h-192c-2.831-0.005-5.548,1.115-7.552,3.115L3.123,301.792
	c-4.164,4.165-4.164,10.917,0,15.083l192,192c4.165,4.164,10.917,4.164,15.083,0l298.667-298.667
	c2.002-1.996,3.13-4.704,3.136-7.531v-192C512.008,4.786,507.233,0.011,501.342,0.011z"/>
<g>
	<circle style="fill:#FAFAFA;" cx="394.675" cy="117.344" r="53.333"/>
	<path style="fill:#FAFAFA;" d="M222.686,348.235c-15.467-0.46-30.136-6.971-40.853-18.133
		c-19.653-16.177-23.799-44.638-9.579-65.749c3.8-4.507,10.533-5.08,15.04-1.28c4.507,3.8,5.08,10.533,1.28,15.04
		c-7.211,8.533-3.456,25.109,8.341,36.907c12.288,12.267,29.589,15.723,37.739,7.573c7.36-7.36,4.949-19.2-7.552-37.397
		l-1.344-1.984c-19.968-28.928-21.717-50.688-6.187-66.133c20.963-16.239,51.034-12.885,67.904,7.573
		c19.662,16.172,23.81,44.64,9.579,65.749c-3.8,4.507-10.533,5.08-15.04,1.28c-4.507-3.8-5.08-10.533-1.28-15.04l0,0
		c7.211-8.533,3.456-25.088-8.363-36.907c-12.267-12.245-29.568-15.723-37.739-7.573c-7.381,7.381-4.949,19.2,7.616,37.483
		l1.323,1.92c19.947,28.971,21.632,50.709,6.165,66.133C242.496,344.692,232.751,348.488,222.686,348.235z"/>
	<path style="fill:#FAFAFA;" d="M181.342,341.344c-5.891,0.011-10.675-4.757-10.686-10.648c-0.005-2.84,1.123-5.565,3.134-7.571
		l106.667-106.667c4.237-4.092,10.99-3.975,15.083,0.262c3.992,4.134,3.992,10.687,0,14.82L188.872,338.208
		C186.877,340.21,184.168,341.338,181.342,341.344z"/>
</g>
<g>
</g>
<g>
</g>
<g>
</g>
<g>
</g>
<g>
</g>
<g>
</g>
<g>
</g>
<g>
</g>
<g>
</g>
<g>
</g>
<g>
</g>
<g>
</g>
<g>
</g>
<g>
</g>
<g>
</g>
</svg>
